<svg id="Layer_1" data-name="Layer 1" xmlns="http://www.w3.org/2000/svg" viewBox="0 0 196.79 64.07"><defs><style>.cls-1{fill:#fff27b;stroke:#323232;stroke-miterlimit:10;stroke-width:0.5px;}</style></defs><path class="cls-1" d="M68.75,21.1h-33C29.36,7.51,26.52,1.33,18.63,1.33a30.34,30.34,0,0,0-8.09,1.09l3,7.35h.16a27,27,0,0,1,7.58-1.1c5.66,0,7.46,4.69,10.3,12.43h-30L1,21.84l2.66,5.35h7.69v12.5c-5.27,1.13-6.21,2.81-6.21,4.57,0,2,1.29,4.1,3.48,6.21,2.5,2.34,4.41,3.4,5.7,3.4a3.47,3.47,0,0,0,2-.7c1.29-.94,1.45-1.61,1.45-6.64H30.35l-.2,13.9,6.21,1.8.55-.39-.16-34.65H55.5a11.66,11.66,0,0,1,.32,3c0,2.89-.59,4.65-1.45,5.78-1.21-.12-3-.16-4.84-.16a4,4,0,0,0-3.67,1.64,4.2,4.2,0,0,0-.67,2.19,10.22,10.22,0,0,0,1.49,4c3.71,6.88,10,13.17,17.93,19.11h.58l3-6.64C62.14,53.2,57,50,53.79,46.53c5-2.78,8.51-6.72,8.51-14.54a25.42,25.42,0,0,0-.43-4.8H74.25l-.15,33.2,6.29,1.84.54-.39-.15-34.65h6.79l.55-.74L85.46,21.1ZM30.31,39.88H17.65V27.19H30.31Z"/><rect class="cls-1" x="144.03" y="8.17" width="7.57" height="7.57" transform="translate(34.84 108.02) rotate(-45)"/><path class="cls-1" d="M195.78,26.45l-2.66-5.35H101l-.54.74,2.65,5.35h8.17a51.71,51.71,0,0,1,.39,6.48,37.92,37.92,0,0,1-.28,5.28c-3.2.39-5.23.86-6.09,1.87a3.48,3.48,0,0,0-.82,2.31c0,1.6,1.21,3.47,3,5.39,2,2.15,3.67,3.24,4.92,3.24a4.19,4.19,0,0,0,3.52-2.15c1.4-2.46,2.07-6,2.07-12.15,0-2.85-.12-6.25-.47-10.27h11.4l-.15,33.2L135,62.23l.54-.39-.15-34.65h10.19l-.15,33.2,6.29,1.84.54-.39-.15-34.65H182v5.43a40.18,40.18,0,0,0-9.84-1.45c-8.13,0-12,4.3-12,9.46,0,2.15.82,4.76,3.25,7.85,3.24,4.06,7,5.86,11.21,5.86a14.51,14.51,0,0,0,7.38-2l-.16,8.12,6.21,1.8.55-.39-.16-34.65h6.8ZM182.07,41.37a4.56,4.56,0,0,1-2,3.87A12.24,12.24,0,0,1,172.26,48c-4,0-5.74-1.6-5.74-3.71,0-3.75,3.32-6.88,9.69-6.88a26.71,26.71,0,0,1,5.86.63Z"/></svg>